<?xml version="1.0" encoding="UTF-8" standalone="no"?>
<svg
   height="800"
   width="1200"
   xml:space="preserve"
   y="0"
   x="0"
   id="svg2985"
   version="1.1"
   viewBox="-103.31835 -52.021 895.4257 312.126"
   sodipodi:docname="Xbox.svg"
   xmlns:inkscape="http://www.inkscape.org/namespaces/inkscape"
   xmlns:sodipodi="http://sodipodi.sourceforge.net/DTD/sodipodi-0.dtd"
   xmlns="http://www.w3.org/2000/svg"
   xmlns:svg="http://www.w3.org/2000/svg"><defs
     id="defs1" /><sodipodi:namedview
     id="namedview1"
     pagecolor="#ffffff"
     bordercolor="#000000"
     borderopacity="0.25"
     inkscape:showpageshadow="2"
     inkscape:pageopacity="0.0"
     inkscape:pagecheckerboard="0"
     inkscape:deskcolor="#d1d1d1"
     inkscape:export-bgcolor="#ffffffff" /><style
     id="style636"
     type="text/css">.st0{fill:#107c10}</style><path
     d="m 688.79,168.437 -47.5,-64 43.4,-58.1 h -16.3 l -35.3,47.4 -35.3,-47.4 h -16.2 l 43.3,58.2 -47.4,64 h 16.3 l 39.3,-53 39.4,53 h 16.3"
     class="st0"
     id="path6965" /><path
     d="m 365.19,168.437 -47.4,-64 43.3,-58.1 h -16.2 l -35.3,47.4 -35.3,-47.4 h -16.3 l 43.4,58.2 -47.5,64 h 16.3 l 39.4,-53 39.3,53 h 16.3"
     class="st0"
     id="path6967" /><path
     d="m 422.09,155.637 h -36.3 v -44.4 h 36.3 c 13.8,0 30.2,3.7 30.2,21.2 0,20.2 -19,23.2 -30.2,23.2 z m -36.3,-96.6 h 36.3 c 9.8,0 26.3,2.4 26.3,19.4 0,12.8 -9.6,20.5 -26.3,20.5 h -36.3 z m 69.6,50 c -2.6,-2.2 -5.3,-3.9 -8.1,-5.1 8.9,-4.8 14.8,-13.9 14.8,-24.4 0,-7.8 -2.9,-33.2 -40.1,-33.2 h -50.1 v 52.7 h -16.7 c -2.2,2.8 -7.1,9.5 -9,12.2 h 25.7 v 57.2 h 50.1 c 27.2,0 44.1,-13.7 44.1,-35.7 0.1,-9.6 -3.6,-17.8 -10.7,-23.7"
     class="st0"
     id="path6969" /><path
     d="m 531.29,158.237 c -26.5,0 -45,-20.9 -45,-50.9 0,-30 18.5,-50.9 45,-50.9 26.4,0 44.8,20.9 44.8,50.9 0,29.9 -18.4,50.9 -44.8,50.9 z m 0,-114.7 c -34.8,0 -59,26.2 -59,63.8 0,37.6 24.2,63.8 59,63.8 34.6,0 58.8,-26.2 58.8,-63.8 0,-37.6 -24.2,-63.8 -58.8,-63.8"
     class="st0"
     id="path6971" /><g
     transform="matrix(0.23106,0,0,0.23106,-1.013,3.163)"
     id="g4146"><path
       d="M 409.1,885 C 339.9,878.4 269.8,853.5 209.5,814.1 159,781.1 147.6,767.6 147.6,740.5 147.6,686.2 207.3,591 309.3,482.6 367.3,421 448,348.8 456.7,350.7 c 17,3.8 152.7,136.4 203.5,198.7 C 740.6,648.2 777.6,729 758.8,765 744.5,792.4 656,845.9 591,866.4 537.4,883.4 467,890.6 409.1,885 Z M 79.5,684.1 C 37.6,619.7 16.4,556.2 6.1,464.5 2.7,434.2 3.9,416.9 13.8,354.7 26.1,277.2 70.1,187.6 123.1,132.4 c 22.6,-23.5 24.6,-24.1 52.1,-14.8 33.4,11.3 69,35.9 124.3,86 l 32.3,29.2 -17.6,21.7 C 232.3,355.1 146,497.7 113.5,585.9 95.8,633.8 88.7,682 96.3,702 c 5.1,13.5 0.4,8.5 -16.8,-17.9 z m 736,10.9 c 4.1,-20.2 -1.1,-57.4 -13.4,-94.9 C 775.6,518.9 686.7,367.7 605.1,265 l -25.7,-32.3 27.8,-25.6 c 36.3,-33.4 61.5,-53.4 88.7,-70.3 21.5,-13.4 52.1,-25.2 65.3,-25.2 8.1,0 36.7,29.7 59.8,62.2 35.8,50.2 62.1,111.2 75.4,174.6 8.6,41 9.3,128.7 1.4,169.5 -6.5,33.5 -20.3,77 -33.7,106.6 -10.1,22.1 -35.1,65 -46.1,79 -5.6,7 -5.6,7 -2.5,-8.5 z M 416.5,96.2 C 378.8,77 320.7,56.5 288.6,50.9 c -11.3,-1.9 -30.4,-3 -42.7,-2.4 -26.5,1.3 -25.3,0 17.2,-20.1 35.3,-16.7 64.8,-26.5 104.8,-34.9 45,-9.5 129.5,-9.6 173.8,-0.2 47.8,10.1 104.1,31.1 135.8,50.6 l 9.4,5.8 -21.6,-1.1 c -43,-2.2 -105.6,15.2 -172.9,48 -20.3,9.9 -37.9,17.8 -39.2,17.5 -1.2,-0.2 -17.8,-8.3 -36.7,-17.9 z"
       class="st0"
       id="path4148" /></g></svg>
